<svg xmlns="http://www.w3.org/2000/svg" width="1120" height="760" viewBox="0 0 1120 760" role="img" aria-labelledby="title desc">
<title id="title">Estimated whole-file FFT execution time vs signal length</title>
<desc id="desc">Log-scale chart of estimated execution time for BlitzFFT exact-real, RealFFT, PocketFFT, FFTW3f, RustFFT complex, and KissFFT from one minute to seventy-two hours at 48 kHz, extrapolated from the measured one-hour benchmark using N log2 N scaling.</desc>
<rect width="100%" height="100%" fill="#ffffff"/>
<text x="110" y="34" font-family="Helvetica, Arial, sans-serif" font-size="28" font-weight="700" fill="#111827">Estimated Exact FFT Execution Time vs Signal Length</text>
<text x="110" y="58" font-family="Helvetica, Arial, sans-serif" font-size="16" fill="#4b5563">48 kHz mono whole-file FFTs; curves extrapolated from the measured 1-hour benchmark with T_est(N) = T(N0) * N log2 N / (N0 log2 N0)</text>
<line x1="110" y1="640.00" x2="1080" y2="640.00" stroke="#e5e7eb" stroke-width="1"/>
<text x="96" y="645.00" text-anchor="end" font-family="Helvetica, Arial, sans-serif" font-size="14" fill="#374151">0.01 s</text>
<line x1="110" y1="524.00" x2="1080" y2="524.00" stroke="#e5e7eb" stroke-width="1"/>
<text x="96" y="529.00" text-anchor="end" font-family="Helvetica, Arial, sans-serif" font-size="14" fill="#374151">0.1 s</text>
<line x1="110" y1="408.00" x2="1080" y2="408.00" stroke="#e5e7eb" stroke-width="1"/>
<text x="96" y="413.00" text-anchor="end" font-family="Helvetica, Arial, sans-serif" font-size="14" fill="#374151">1 s</text>
<line x1="110" y1="292.00" x2="1080" y2="292.00" stroke="#e5e7eb" stroke-width="1"/>
<text x="96" y="297.00" text-anchor="end" font-family="Helvetica, Arial, sans-serif" font-size="14" fill="#374151">10 s</text>
<line x1="110" y1="176.00" x2="1080" y2="176.00" stroke="#e5e7eb" stroke-width="1"/>
<text x="96" y="181.00" text-anchor="end" font-family="Helvetica, Arial, sans-serif" font-size="14" fill="#374151">100 s</text>
<line x1="110" y1="60.00" x2="1080" y2="60.00" stroke="#e5e7eb" stroke-width="1"/>
<text x="96" y="65.00" text-anchor="end" font-family="Helvetica, Arial, sans-serif" font-size="14" fill="#374151">1000 s</text>
<line x1="110" y1="60" x2="110" y2="640" stroke="#111827" stroke-width="1.5"/>
<line x1="110" y1="640" x2="1080" y2="640" stroke="#111827" stroke-width="1.5"/>
<line x1="110.00" y1="640" x2="110.00" y2="648" stroke="#111827" stroke-width="1"/>
<text x="110.00" y="668" text-anchor="middle" font-family="Helvetica, Arial, sans-serif" font-size="14" fill="#374151">1 min</text>
<text x="110.00" y="688" text-anchor="middle" font-family="Helvetica, Arial, sans-serif" font-size="12" fill="#6b7280">N=2.88M</text>
<line x1="248.57" y1="640" x2="248.57" y2="648" stroke="#111827" stroke-width="1"/>
<text x="248.57" y="668" text-anchor="middle" font-family="Helvetica, Arial, sans-serif" font-size="14" fill="#374151">10 min</text>
<text x="248.57" y="688" text-anchor="middle" font-family="Helvetica, Arial, sans-serif" font-size="12" fill="#6b7280">N=28.80M</text>
<line x1="387.14" y1="640" x2="387.14" y2="648" stroke="#111827" stroke-width="1"/>
<text x="387.14" y="668" text-anchor="middle" font-family="Helvetica, Arial, sans-serif" font-size="14" fill="#374151">1 hr</text>
<text x="387.14" y="688" text-anchor="middle" font-family="Helvetica, Arial, sans-serif" font-size="12" fill="#6b7280">N=172.80M</text>
<line x1="525.71" y1="640" x2="525.71" y2="648" stroke="#111827" stroke-width="1"/>
<text x="525.71" y="668" text-anchor="middle" font-family="Helvetica, Arial, sans-serif" font-size="14" fill="#374151">6 hr</text>
<text x="525.71" y="688" text-anchor="middle" font-family="Helvetica, Arial, sans-serif" font-size="12" fill="#6b7280">N=1.037B</text>
<line x1="664.29" y1="640" x2="664.29" y2="648" stroke="#111827" stroke-width="1"/>
<text x="664.29" y="668" text-anchor="middle" font-family="Helvetica, Arial, sans-serif" font-size="14" fill="#374151">12 hr</text>
<text x="664.29" y="688" text-anchor="middle" font-family="Helvetica, Arial, sans-serif" font-size="12" fill="#6b7280">N=2.074B</text>
<line x1="802.86" y1="640" x2="802.86" y2="648" stroke="#111827" stroke-width="1"/>
<text x="802.86" y="668" text-anchor="middle" font-family="Helvetica, Arial, sans-serif" font-size="14" fill="#374151">24 hr</text>
<text x="802.86" y="688" text-anchor="middle" font-family="Helvetica, Arial, sans-serif" font-size="12" fill="#6b7280">N=4.147B</text>
<line x1="941.43" y1="640" x2="941.43" y2="648" stroke="#111827" stroke-width="1"/>
<text x="941.43" y="668" text-anchor="middle" font-family="Helvetica, Arial, sans-serif" font-size="14" fill="#374151">48 hr</text>
<text x="941.43" y="688" text-anchor="middle" font-family="Helvetica, Arial, sans-serif" font-size="12" fill="#6b7280">N=8.294B</text>
<line x1="1080.00" y1="640" x2="1080.00" y2="648" stroke="#111827" stroke-width="1"/>
<text x="1080.00" y="668" text-anchor="middle" font-family="Helvetica, Arial, sans-serif" font-size="14" fill="#374151">72 hr</text>
<text x="1080.00" y="688" text-anchor="middle" font-family="Helvetica, Arial, sans-serif" font-size="12" fill="#6b7280">N=12.442B</text>
<text x="32" y="350.00" transform="rotate(-90 32 350.00)" text-anchor="middle" font-family="Helvetica, Arial, sans-serif" font-size="16" fill="#111827">Estimated execution time (seconds, log scale)</text>
<text x="595.00" y="732" text-anchor="middle" font-family="Helvetica, Arial, sans-serif" font-size="16" fill="#111827">Exact whole-file FFT size at 48 kHz</text>
<polyline fill="none" stroke="#1f77b4" stroke-width="3" points="110.00,616.75 248.57,493.50 387.14,398.23 525.71,303.42 664.29,266.84 802.86,230.32 941.43,193.85 1080.00,172.54"/>
<circle cx="110.00" cy="616.75" r="4.5" fill="#1f77b4" stroke="#ffffff" stroke-width="1.5"/>
<circle cx="248.57" cy="493.50" r="4.5" fill="#1f77b4" stroke="#ffffff" stroke-width="1.5"/>
<circle cx="387.14" cy="398.23" r="4.5" fill="#1f77b4" stroke="#ffffff" stroke-width="1.5"/>
<circle cx="525.71" cy="303.42" r="4.5" fill="#1f77b4" stroke="#ffffff" stroke-width="1.5"/>
<circle cx="664.29" cy="266.84" r="4.5" fill="#1f77b4" stroke="#ffffff" stroke-width="1.5"/>
<circle cx="802.86" cy="230.32" r="4.5" fill="#1f77b4" stroke="#ffffff" stroke-width="1.5"/>
<circle cx="941.43" cy="193.85" r="4.5" fill="#1f77b4" stroke="#ffffff" stroke-width="1.5"/>
<circle cx="1080.00" cy="172.54" r="4.5" fill="#1f77b4" stroke="#ffffff" stroke-width="1.5"/>
<polyline fill="none" stroke="#2ca02c" stroke-width="3" points="110.00,584.32 248.57,461.06 387.14,365.80 525.71,270.99 664.29,234.41 802.86,197.89 941.43,161.42 1080.00,140.11"/>
<circle cx="110.00" cy="584.32" r="4.5" fill="#2ca02c" stroke="#ffffff" stroke-width="1.5"/>
<circle cx="248.57" cy="461.06" r="4.5" fill="#2ca02c" stroke="#ffffff" stroke-width="1.5"/>
<circle cx="387.14" cy="365.80" r="4.5" fill="#2ca02c" stroke="#ffffff" stroke-width="1.5"/>
<circle cx="525.71" cy="270.99" r="4.5" fill="#2ca02c" stroke="#ffffff" stroke-width="1.5"/>
<circle cx="664.29" cy="234.41" r="4.5" fill="#2ca02c" stroke="#ffffff" stroke-width="1.5"/>
<circle cx="802.86" cy="197.89" r="4.5" fill="#2ca02c" stroke="#ffffff" stroke-width="1.5"/>
<circle cx="941.43" cy="161.42" r="4.5" fill="#2ca02c" stroke="#ffffff" stroke-width="1.5"/>
<circle cx="1080.00" cy="140.11" r="4.5" fill="#2ca02c" stroke="#ffffff" stroke-width="1.5"/>
<polyline fill="none" stroke="#d62728" stroke-width="3" points="110.00,580.19 248.57,456.94 387.14,361.68 525.71,266.87 664.29,230.29 802.86,193.77 941.43,157.30 1080.00,135.98"/>
<circle cx="110.00" cy="580.19" r="4.5" fill="#d62728" stroke="#ffffff" stroke-width="1.5"/>
<circle cx="248.57" cy="456.94" r="4.5" fill="#d62728" stroke="#ffffff" stroke-width="1.5"/>
<circle cx="387.14" cy="361.68" r="4.5" fill="#d62728" stroke="#ffffff" stroke-width="1.5"/>
<circle cx="525.71" cy="266.87" r="4.5" fill="#d62728" stroke="#ffffff" stroke-width="1.5"/>
<circle cx="664.29" cy="230.29" r="4.5" fill="#d62728" stroke="#ffffff" stroke-width="1.5"/>
<circle cx="802.86" cy="193.77" r="4.5" fill="#d62728" stroke="#ffffff" stroke-width="1.5"/>
<circle cx="941.43" cy="157.30" r="4.5" fill="#d62728" stroke="#ffffff" stroke-width="1.5"/>
<circle cx="1080.00" cy="135.98" r="4.5" fill="#d62728" stroke="#ffffff" stroke-width="1.5"/>
<polyline fill="none" stroke="#9467bd" stroke-width="3" points="110.00,555.48 248.57,432.23 387.14,336.97 525.71,242.15 664.29,205.58 802.86,169.06 941.43,132.59 1080.00,111.27"/>
<circle cx="110.00" cy="555.48" r="4.5" fill="#9467bd" stroke="#ffffff" stroke-width="1.5"/>
<circle cx="248.57" cy="432.23" r="4.5" fill="#9467bd" stroke="#ffffff" stroke-width="1.5"/>
<circle cx="387.14" cy="336.97" r="4.5" fill="#9467bd" stroke="#ffffff" stroke-width="1.5"/>
<circle cx="525.71" cy="242.15" r="4.5" fill="#9467bd" stroke="#ffffff" stroke-width="1.5"/>
<circle cx="664.29" cy="205.58" r="4.5" fill="#9467bd" stroke="#ffffff" stroke-width="1.5"/>
<circle cx="802.86" cy="169.06" r="4.5" fill="#9467bd" stroke="#ffffff" stroke-width="1.5"/>
<circle cx="941.43" cy="132.59" r="4.5" fill="#9467bd" stroke="#ffffff" stroke-width="1.5"/>
<circle cx="1080.00" cy="111.27" r="4.5" fill="#9467bd" stroke="#ffffff" stroke-width="1.5"/>
<polyline fill="none" stroke="#ff7f0e" stroke-width="3" points="110.00,552.12 248.57,428.86 387.14,333.60 525.71,238.79 664.29,202.21 802.86,165.69 941.43,129.22 1080.00,107.91"/>
<circle cx="110.00" cy="552.12" r="4.5" fill="#ff7f0e" stroke="#ffffff" stroke-width="1.5"/>
<circle cx="248.57" cy="428.86" r="4.5" fill="#ff7f0e" stroke="#ffffff" stroke-width="1.5"/>
<circle cx="387.14" cy="333.60" r="4.5" fill="#ff7f0e" stroke="#ffffff" stroke-width="1.5"/>
<circle cx="525.71" cy="238.79" r="4.5" fill="#ff7f0e" stroke="#ffffff" stroke-width="1.5"/>
<circle cx="664.29" cy="202.21" r="4.5" fill="#ff7f0e" stroke="#ffffff" stroke-width="1.5"/>
<circle cx="802.86" cy="165.69" r="4.5" fill="#ff7f0e" stroke="#ffffff" stroke-width="1.5"/>
<circle cx="941.43" cy="129.22" r="4.5" fill="#ff7f0e" stroke="#ffffff" stroke-width="1.5"/>
<circle cx="1080.00" cy="107.91" r="4.5" fill="#ff7f0e" stroke="#ffffff" stroke-width="1.5"/>
<polyline fill="none" stroke="#8c564b" stroke-width="3" points="110.00,543.07 248.57,419.82 387.14,324.56 525.71,229.74 664.29,193.17 802.86,156.65 941.43,120.18 1080.00,98.86"/>
<circle cx="110.00" cy="543.07" r="4.5" fill="#8c564b" stroke="#ffffff" stroke-width="1.5"/>
<circle cx="248.57" cy="419.82" r="4.5" fill="#8c564b" stroke="#ffffff" stroke-width="1.5"/>
<circle cx="387.14" cy="324.56" r="4.5" fill="#8c564b" stroke="#ffffff" stroke-width="1.5"/>
<circle cx="525.71" cy="229.74" r="4.5" fill="#8c564b" stroke="#ffffff" stroke-width="1.5"/>
<circle cx="664.29" cy="193.17" r="4.5" fill="#8c564b" stroke="#ffffff" stroke-width="1.5"/>
<circle cx="802.86" cy="156.65" r="4.5" fill="#8c564b" stroke="#ffffff" stroke-width="1.5"/>
<circle cx="941.43" cy="120.18" r="4.5" fill="#8c564b" stroke="#ffffff" stroke-width="1.5"/>
<circle cx="1080.00" cy="98.86" r="4.5" fill="#8c564b" stroke="#ffffff" stroke-width="1.5"/>
<rect x="735" y="92" width="320" height="168" rx="10" fill="#ffffff" stroke="#d1d5db"/>
<text x="751" y="116" font-family="Helvetica, Arial, sans-serif" font-size="16" font-weight="700" fill="#111827">Algorithms</text>
<line x1="751" y1="140" x2="777" y2="140" stroke="#1f77b4" stroke-width="3"/>
<circle cx="764" cy="140" r="4" fill="#1f77b4" stroke="#fff" stroke-width="1"/>
<text x="787" y="145" font-family="Helvetica, Arial, sans-serif" font-size="14" fill="#111827">PocketFFT</text>
<line x1="751" y1="160" x2="777" y2="160" stroke="#2ca02c" stroke-width="3"/>
<circle cx="764" cy="160" r="4" fill="#2ca02c" stroke="#fff" stroke-width="1"/>
<text x="787" y="165" font-family="Helvetica, Arial, sans-serif" font-size="14" fill="#111827">RealFFT</text>
<line x1="751" y1="180" x2="777" y2="180" stroke="#d62728" stroke-width="3"/>
<circle cx="764" cy="180" r="4" fill="#d62728" stroke="#fff" stroke-width="1"/>
<text x="787" y="185" font-family="Helvetica, Arial, sans-serif" font-size="14" fill="#111827">BlitzFFT exact-real</text>
<line x1="751" y1="200" x2="777" y2="200" stroke="#9467bd" stroke-width="3"/>
<circle cx="764" cy="200" r="4" fill="#9467bd" stroke="#fff" stroke-width="1"/>
<text x="787" y="205" font-family="Helvetica, Arial, sans-serif" font-size="14" fill="#111827">FFTW3f</text>
<line x1="751" y1="220" x2="777" y2="220" stroke="#ff7f0e" stroke-width="3"/>
<circle cx="764" cy="220" r="4" fill="#ff7f0e" stroke="#fff" stroke-width="1"/>
<text x="787" y="225" font-family="Helvetica, Arial, sans-serif" font-size="14" fill="#111827">RustFFT complex</text>
<line x1="751" y1="240" x2="777" y2="240" stroke="#8c564b" stroke-width="3"/>
<circle cx="764" cy="240" r="4" fill="#8c564b" stroke="#fff" stroke-width="1"/>
<text x="787" y="245" font-family="Helvetica, Arial, sans-serif" font-size="14" fill="#111827">KissFFT</text>
<rect x="110" y="570" width="980" height="116" rx="10" fill="#f9fafb" stroke="#d1d5db"/>
<text x="128" y="598" font-family="Helvetica, Arial, sans-serif" font-size="15" fill="#374151">Measured anchor point: 1 hr, 172.8M samples</text>
<text x="128" y="626" font-family="Helvetica, Arial, sans-serif" font-size="15" fill="#374151">Measured execution times come from benchmarks/60min_whole_file_fft.md</text>
<text x="128" y="654" font-family="Helvetica, Arial, sans-serif" font-size="15" fill="#374151">Values away from that point are modeled estimates, not directly measured runs</text>
</svg>